<mxfile host="Electron" modified="2024-09-15T18:05:14.251Z" agent="Mozilla/5.0 (Windows NT 10.0; Win64; x64) AppleWebKit/537.36 (KHTML, like Gecko) draw.io/21.2.8 Chrome/112.0.5615.165 Electron/24.2.0 Safari/537.36" etag="f9rYwLNS3TTIiKUk5R-V" version="21.2.8" type="device">
  <diagram name="Page-1" id="8Ki3WzeOfG9bLv4DmGKw">
    <mxGraphModel dx="1050" dy="629" grid="1" gridSize="10" guides="1" tooltips="1" connect="1" arrows="1" fold="1" page="1" pageScale="1" pageWidth="850" pageHeight="1100" math="0" shadow="0">
      <root>
        <mxCell id="0" />
        <mxCell id="1" parent="0" />
        <mxCell id="Jj55U650Jitu8uKOLBNu-1" value="UI" style="rounded=1;whiteSpace=wrap;html=1;fillColor=#dae8fc;strokeColor=#6c8ebf;" parent="1" vertex="1">
          <mxGeometry x="430" y="530" width="60" height="40" as="geometry" />
        </mxCell>
        <mxCell id="Jj55U650Jitu8uKOLBNu-3" value="&amp;lt;&amp;lt;interface&amp;gt;&amp;gt;&lt;br&gt;Creature" style="rounded=1;whiteSpace=wrap;html=1;fillColor=#f5f5f5;strokeColor=#666666;fontColor=#333333;" parent="1" vertex="1">
          <mxGeometry x="200" y="260" width="100" height="40" as="geometry" />
        </mxCell>
        <mxCell id="Jj55U650Jitu8uKOLBNu-4" value="Game Master" style="rounded=1;whiteSpace=wrap;html=1;fillColor=#dae8fc;strokeColor=#6c8ebf;" parent="1" vertex="1">
          <mxGeometry x="590" y="340" width="100" height="40" as="geometry" />
        </mxCell>
        <mxCell id="Jj55U650Jitu8uKOLBNu-10" value="" style="endArrow=classic;html=1;entryX=0;entryY=0.5;entryDx=0;entryDy=0;curved=1;exitX=1;exitY=0.75;exitDx=0;exitDy=0;" parent="1" source="Jj55U650Jitu8uKOLBNu-3" target="OCFg-jp6_DVnQoXGoYAK-1" edge="1">
          <mxGeometry width="50" height="50" relative="1" as="geometry">
            <mxPoint x="390" y="290" as="sourcePoint" />
            <mxPoint x="410" y="400" as="targetPoint" />
            <Array as="points">
              <mxPoint x="350" y="340" />
            </Array>
          </mxGeometry>
        </mxCell>
        <mxCell id="Jj55U650Jitu8uKOLBNu-11" value="" style="endArrow=classic;html=1;rounded=0;exitX=0;exitY=0.5;exitDx=0;exitDy=0;entryX=1;entryY=0.5;entryDx=0;entryDy=0;" parent="1" source="Jj55U650Jitu8uKOLBNu-4" target="OCFg-jp6_DVnQoXGoYAK-1" edge="1">
          <mxGeometry width="50" height="50" relative="1" as="geometry">
            <mxPoint x="365" y="370" as="sourcePoint" />
            <mxPoint x="610" y="260" as="targetPoint" />
          </mxGeometry>
        </mxCell>
        <mxCell id="Jj55U650Jitu8uKOLBNu-12" value="" style="endArrow=classic;html=1;exitX=0.5;exitY=0;exitDx=0;exitDy=0;curved=1;entryX=1;entryY=0.25;entryDx=0;entryDy=0;" parent="1" source="Jj55U650Jitu8uKOLBNu-4" target="Jj55U650Jitu8uKOLBNu-3" edge="1">
          <mxGeometry width="50" height="50" relative="1" as="geometry">
            <mxPoint x="600" y="370" as="sourcePoint" />
            <mxPoint x="300" y="270" as="targetPoint" />
            <Array as="points">
              <mxPoint x="640" y="290" />
            </Array>
          </mxGeometry>
        </mxCell>
        <mxCell id="OCFg-jp6_DVnQoXGoYAK-1" value="3D World" style="rounded=1;whiteSpace=wrap;html=1;fillColor=#dae8fc;strokeColor=#6c8ebf;" parent="1" vertex="1">
          <mxGeometry x="417" y="340" width="100" height="40" as="geometry" />
        </mxCell>
        <mxCell id="OCFg-jp6_DVnQoXGoYAK-5" value="Online Synchronizer" style="rounded=1;whiteSpace=wrap;html=1;fillColor=#dae8fc;strokeColor=#6c8ebf;" parent="1" vertex="1">
          <mxGeometry x="395" y="460" width="130" height="40" as="geometry" />
        </mxCell>
        <mxCell id="OCFg-jp6_DVnQoXGoYAK-7" value="Remote Creature" style="rounded=1;whiteSpace=wrap;html=1;fillColor=#dae8fc;strokeColor=#6c8ebf;" parent="1" vertex="1">
          <mxGeometry x="150" y="340" width="110" height="40" as="geometry" />
        </mxCell>
        <mxCell id="OCFg-jp6_DVnQoXGoYAK-8" value="" style="endArrow=classic;html=1;rounded=0;entryX=0.75;entryY=1;entryDx=0;entryDy=0;exitX=0.75;exitY=0;exitDx=0;exitDy=0;" parent="1" source="OCFg-jp6_DVnQoXGoYAK-5" target="OCFg-jp6_DVnQoXGoYAK-1" edge="1">
          <mxGeometry width="50" height="50" relative="1" as="geometry">
            <mxPoint x="600" y="370" as="sourcePoint" />
            <mxPoint x="460" y="340" as="targetPoint" />
          </mxGeometry>
        </mxCell>
        <mxCell id="OCFg-jp6_DVnQoXGoYAK-10" value="Creature" style="rounded=1;whiteSpace=wrap;html=1;fillColor=#dae8fc;strokeColor=#6c8ebf;" parent="1" vertex="1">
          <mxGeometry x="270" y="340" width="82.5" height="40" as="geometry" />
        </mxCell>
        <mxCell id="OCFg-jp6_DVnQoXGoYAK-12" value="" style="endArrow=block;dashed=1;endFill=0;endSize=12;html=1;rounded=0;exitX=0.5;exitY=0;exitDx=0;exitDy=0;entryX=0.25;entryY=1;entryDx=0;entryDy=0;" parent="1" source="OCFg-jp6_DVnQoXGoYAK-7" target="Jj55U650Jitu8uKOLBNu-3" edge="1">
          <mxGeometry width="160" relative="1" as="geometry">
            <mxPoint x="310" y="340" as="sourcePoint" />
            <mxPoint x="470" y="340" as="targetPoint" />
          </mxGeometry>
        </mxCell>
        <mxCell id="OCFg-jp6_DVnQoXGoYAK-13" value="" style="endArrow=block;dashed=1;endFill=0;endSize=12;html=1;rounded=0;exitX=0.5;exitY=0;exitDx=0;exitDy=0;entryX=0.75;entryY=1;entryDx=0;entryDy=0;" parent="1" source="OCFg-jp6_DVnQoXGoYAK-10" target="Jj55U650Jitu8uKOLBNu-3" edge="1">
          <mxGeometry width="160" relative="1" as="geometry">
            <mxPoint x="210" y="350" as="sourcePoint" />
            <mxPoint x="250" y="320" as="targetPoint" />
          </mxGeometry>
        </mxCell>
        <mxCell id="OCFg-jp6_DVnQoXGoYAK-14" value="" style="endArrow=classic;html=1;exitX=1;exitY=0.5;exitDx=0;exitDy=0;entryX=0.5;entryY=1;entryDx=0;entryDy=0;curved=1;" parent="1" source="Jj55U650Jitu8uKOLBNu-1" target="Jj55U650Jitu8uKOLBNu-4" edge="1">
          <mxGeometry width="50" height="50" relative="1" as="geometry">
            <mxPoint x="600" y="370" as="sourcePoint" />
            <mxPoint x="520" y="370" as="targetPoint" />
            <Array as="points">
              <mxPoint x="640" y="530" />
            </Array>
          </mxGeometry>
        </mxCell>
        <mxCell id="OCFg-jp6_DVnQoXGoYAK-15" value="" style="endArrow=classic;html=1;exitX=0;exitY=0.5;exitDx=0;exitDy=0;entryX=0;entryY=0.5;entryDx=0;entryDy=0;curved=1;" parent="1" source="Jj55U650Jitu8uKOLBNu-1" target="Jj55U650Jitu8uKOLBNu-3" edge="1">
          <mxGeometry width="50" height="50" relative="1" as="geometry">
            <mxPoint x="500" y="460" as="sourcePoint" />
            <mxPoint x="650" y="390" as="targetPoint" />
            <Array as="points">
              <mxPoint x="210" y="540" />
              <mxPoint x="100" y="350" />
            </Array>
          </mxGeometry>
        </mxCell>
        <mxCell id="OCFg-jp6_DVnQoXGoYAK-17" value="" style="endArrow=classic;html=1;entryX=0.5;entryY=1;entryDx=0;entryDy=0;curved=1;exitX=0;exitY=0.25;exitDx=0;exitDy=0;" parent="1" source="OCFg-jp6_DVnQoXGoYAK-5" target="OCFg-jp6_DVnQoXGoYAK-10" edge="1">
          <mxGeometry width="50" height="50" relative="1" as="geometry">
            <mxPoint x="290" y="490" as="sourcePoint" />
            <mxPoint x="470" y="390" as="targetPoint" />
            <Array as="points">
              <mxPoint x="310" y="470" />
            </Array>
          </mxGeometry>
        </mxCell>
        <mxCell id="OCFg-jp6_DVnQoXGoYAK-18" value="" style="endArrow=classic;html=1;exitX=0.5;exitY=1;exitDx=0;exitDy=0;entryX=0;entryY=0.75;entryDx=0;entryDy=0;curved=1;" parent="1" source="OCFg-jp6_DVnQoXGoYAK-7" target="OCFg-jp6_DVnQoXGoYAK-5" edge="1">
          <mxGeometry width="50" height="50" relative="1" as="geometry">
            <mxPoint x="405" y="450" as="sourcePoint" />
            <mxPoint x="330" y="460" as="targetPoint" />
            <Array as="points">
              <mxPoint x="205" y="480" />
            </Array>
          </mxGeometry>
        </mxCell>
        <mxCell id="NzB15RZHDcy4MxEbTFbn-1" value="IO" style="rounded=1;whiteSpace=wrap;html=1;fillColor=#dae8fc;strokeColor=#6c8ebf;" parent="1" vertex="1">
          <mxGeometry x="369.5" y="400" width="47.5" height="40" as="geometry" />
        </mxCell>
        <mxCell id="bKv_3FNk6Nhh4c04cwLq-3" value="" style="endArrow=classic;html=1;exitX=0.25;exitY=1;exitDx=0;exitDy=0;entryX=1;entryY=0.5;entryDx=0;entryDy=0;curved=1;" parent="1" source="Jj55U650Jitu8uKOLBNu-4" target="OCFg-jp6_DVnQoXGoYAK-5" edge="1">
          <mxGeometry width="50" height="50" relative="1" as="geometry">
            <mxPoint x="500" y="540" as="sourcePoint" />
            <mxPoint x="650" y="390" as="targetPoint" />
            <Array as="points">
              <mxPoint x="610" y="470" />
            </Array>
          </mxGeometry>
        </mxCell>
        <mxCell id="QBcsQCmyRLzWKlw3_DGB-3" value="" style="endArrow=classic;html=1;entryX=0;entryY=0.5;entryDx=0;entryDy=0;curved=1;exitX=0.75;exitY=1;exitDx=0;exitDy=0;" parent="1" source="OCFg-jp6_DVnQoXGoYAK-10" target="NzB15RZHDcy4MxEbTFbn-1" edge="1">
          <mxGeometry width="50" height="50" relative="1" as="geometry">
            <mxPoint x="310" y="300" as="sourcePoint" />
            <mxPoint x="427" y="370" as="targetPoint" />
            <Array as="points">
              <mxPoint x="332" y="410" />
            </Array>
          </mxGeometry>
        </mxCell>
        <mxCell id="LBKh72S285BoX8zyUNAG-2" value="Creature Coordinator" style="rounded=1;whiteSpace=wrap;html=1;fillColor=#dae8fc;strokeColor=#6c8ebf;" parent="1" vertex="1">
          <mxGeometry x="205" y="680" width="130" height="40" as="geometry" />
        </mxCell>
        <mxCell id="LBKh72S285BoX8zyUNAG-3" value="&lt;i&gt;IO&lt;/i&gt;" style="rounded=1;whiteSpace=wrap;html=1;fillColor=#dae8fc;strokeColor=#6c8ebf;" parent="1" vertex="1">
          <mxGeometry x="382.5" y="680" width="47.5" height="40" as="geometry" />
        </mxCell>
        <mxCell id="LBKh72S285BoX8zyUNAG-5" value="&lt;i&gt;Creature&lt;/i&gt;" style="rounded=1;whiteSpace=wrap;html=1;fillColor=#dae8fc;strokeColor=#6c8ebf;" parent="1" vertex="1">
          <mxGeometry x="228.75" y="590" width="82.5" height="40" as="geometry" />
        </mxCell>
        <mxCell id="LBKh72S285BoX8zyUNAG-6" value="" style="endArrow=classic;html=1;entryX=0.5;entryY=1;entryDx=0;entryDy=0;curved=1;exitX=0.5;exitY=0;exitDx=0;exitDy=0;" parent="1" source="LBKh72S285BoX8zyUNAG-2" target="LBKh72S285BoX8zyUNAG-5" edge="1">
          <mxGeometry width="50" height="50" relative="1" as="geometry">
            <mxPoint x="342" y="390" as="sourcePoint" />
            <mxPoint x="130" y="630" as="targetPoint" />
            <Array as="points" />
          </mxGeometry>
        </mxCell>
        <mxCell id="LBKh72S285BoX8zyUNAG-7" value="" style="endArrow=classic;html=1;entryX=0;entryY=0.5;entryDx=0;entryDy=0;curved=1;exitX=1;exitY=0.5;exitDx=0;exitDy=0;" parent="1" source="LBKh72S285BoX8zyUNAG-2" target="LBKh72S285BoX8zyUNAG-3" edge="1">
          <mxGeometry width="50" height="50" relative="1" as="geometry">
            <mxPoint x="280" y="690" as="sourcePoint" />
            <mxPoint x="280" y="640" as="targetPoint" />
            <Array as="points" />
          </mxGeometry>
        </mxCell>
      </root>
    </mxGraphModel>
  </diagram>
</mxfile>
